<svg width="24" height="25" viewBox="0 0 24 25" fill="none" xmlns="http://www.w3.org/2000/svg">
<path d="M12.0027 6.09032C8.59743 6.09032 5.85075 8.95208 5.85075 12.5C5.85075 16.0479 8.59743 18.9097 12.0027 18.9097C15.4079 18.9097 18.1546 16.0479 18.1546 12.5C18.1546 8.95208 15.4079 6.09032 12.0027 6.09032ZM12.0027 16.6671C9.80212 16.6671 8.00312 14.7983 8.00312 12.5C8.00312 10.2017 9.79677 8.33287 12.0027 8.33287C14.2086 8.33287 16.0022 10.2017 16.0022 12.5C16.0022 14.7983 14.2032 16.6671 12.0027 16.6671ZM19.8412 5.82813C19.8412 6.65932 19.1987 7.32316 18.4062 7.32316C17.6085 7.32316 16.9713 6.65374 16.9713 5.82813C16.9713 5.00251 17.6138 4.33309 18.4062 4.33309C19.1987 4.33309 19.8412 5.00251 19.8412 5.82813ZM23.9157 7.34548C23.8247 5.3428 23.3856 3.56884 21.9775 2.10727C20.5747 0.64571 18.8721 0.188274 16.9499 0.0878612C14.9689 -0.0292871 9.03112 -0.0292871 7.05008 0.0878612C5.1333 0.182696 3.43068 0.640132 2.02253 2.1017C0.614389 3.56326 0.180703 5.33722 0.0843279 7.3399C-0.0281093 9.40394 -0.0281093 15.5905 0.0843279 17.6545C0.175349 19.6572 0.614389 21.4312 2.02253 22.8927C3.43068 24.3543 5.12794 24.8117 7.05008 24.9121C9.03112 25.0293 14.9689 25.0293 16.9499 24.9121C18.8721 24.8173 20.5747 24.3599 21.9775 22.8927C23.3803 21.4312 23.8193 19.6572 23.9157 17.6545C24.0281 15.5905 24.0281 9.40952 23.9157 7.34548ZM21.3564 19.8692C20.9388 20.9626 20.1303 21.8049 19.0755 22.2456C17.496 22.8983 13.7481 22.7477 12.0027 22.7477C10.2572 22.7477 6.50396 22.8927 4.92984 22.2456C3.88042 21.8105 3.07195 20.9681 2.64897 19.8692C2.02253 18.2235 2.16709 14.3186 2.16709 12.5C2.16709 10.6814 2.02789 6.77089 2.64897 5.13082C3.06659 4.03743 3.87507 3.19508 4.92984 2.75438C6.50931 2.1017 10.2572 2.25232 12.0027 2.25232C13.7481 2.25232 17.5014 2.10727 19.0755 2.75438C20.1249 3.1895 20.9334 4.03185 21.3564 5.13082C21.9828 6.77647 21.8383 10.6814 21.8383 12.5C21.8383 14.3186 21.9828 18.2291 21.3564 19.8692Z" fill="#2E2E2E"/>
</svg>
