<svg width="27" height="25" viewBox="0 0 27 25" fill="none" xmlns="http://www.w3.org/2000/svg">
<path d="M0 2.90404C0 2.06227 0.293031 1.36783 0.879068 0.820707C1.4651 0.273561 2.22698 0 3.16464 0C4.08558 0 4.83068 0.269343 5.39999 0.808081C5.98602 1.36364 6.27906 2.08753 6.27906 2.9798C6.27906 3.78788 5.99441 4.46126 5.4251 5C4.83907 5.55556 4.06883 5.83333 3.11441 5.83333H3.0893C2.16836 5.83333 1.42326 5.55556 0.853952 5C0.284642 4.44444 0 3.74578 0 2.90404ZM0.326511 25V8.13131H5.90231V25H0.326511ZM8.99161 25H14.5674V15.5808C14.5674 14.9916 14.6344 14.537 14.7683 14.2172C15.0027 13.6448 15.3586 13.1608 15.8358 12.7652C16.313 12.3695 16.9116 12.1717 17.6316 12.1717C19.5069 12.1717 20.4446 13.4428 20.4446 15.9848V25H26.0204V15.3283C26.0204 12.8367 25.4344 10.947 24.2623 9.65909C23.0902 8.37121 21.5414 7.72727 19.6158 7.72727C17.4558 7.72727 15.773 8.66162 14.5674 10.5303V10.5808H14.5423L14.5674 10.5303V8.13131H8.99161C9.02509 8.67002 9.04184 10.3451 9.04184 13.1566C9.04184 15.968 9.02509 19.9158 8.99161 25Z" fill="#2E2E2E"/>
</svg>
