<svg width="190" height="41" viewBox="0 0 190 41" fill="none" xmlns="http://www.w3.org/2000/svg">
<path d="M92.7905 22.0171C92.3755 17.2303 89.6299 14.4618 86.3777 12.1821C89.876 11.2141 91.6855 6.76606 90.0063 3.32476C87.4344 -1.92672 77.8079 -0.987746 77.9286 6.35949C77.9286 8.37297 79.0625 9.68463 79.7429 10.8511C73.1033 11.4271 69.3975 14.8974 65.5662 18.2516C69.8076 16.0977 74.2517 12.3563 80.8093 13.034C83.2267 13.2735 85.4651 14.4186 87.0778 16.2407C88.6904 18.0629 89.5587 20.4281 89.5093 22.8642C89.4321 28.8029 84.6502 32.888 78.6186 32.2104C73.1998 31.6005 68.9101 26.9298 64.9437 23.595C60.7505 20.0521 56.5429 15.938 52.1326 14.1278C47.5678 12.2499 41.1116 13.3244 39.4903 17.0996C40.7853 15.6393 42.5724 14.7102 44.5086 14.4908C49.3339 13.9729 52.2725 16.3978 54.9168 18.6194C57.1991 20.5554 59.2113 22.4431 61.1896 24.321C65.6096 28.4787 69.658 32.8783 74.6184 34.8821C83.8492 38.5944 93.6397 31.7941 92.7905 22.0171Z" fill="url(#paint0_linear_171_1402)"/>
<path d="M40.7063 18.4017C36.3008 20.2167 32.0883 24.3307 27.8807 27.8688C23.9191 31.2037 19.6294 35.8792 14.2106 36.489C8.17899 37.1618 3.39229 33.101 3.31992 27.1428C3.26825 24.7036 4.13675 22.3347 5.75166 20.5103C7.36657 18.6858 9.60875 17.5403 12.0296 17.303C18.5871 16.6253 23.0312 20.3667 27.2775 22.5254C23.4462 19.1664 19.7259 15.6961 13.1201 15.1201C13.7956 13.9536 14.9054 12.642 14.9344 10.6285C15.0357 3.28609 5.40926 2.36647 2.83256 7.59376C1.13888 11.0399 2.96766 15.4976 6.466 16.4656C3.21375 18.7405 0.468157 21.509 0.0531819 26.2958C-0.800895 36.0728 8.98963 42.8779 18.2011 39.1608C23.1615 37.1618 27.2148 32.7622 31.6347 28.6045C33.6276 26.7266 35.6397 24.8148 37.9076 22.8981C40.5519 20.6765 43.5098 18.2516 48.3109 18.7695C50.2478 18.9913 52.0356 19.9198 53.3341 21.3783C51.7321 17.5982 45.2758 16.5189 40.7063 18.4017Z" fill="url(#paint1_linear_171_1402)"/>
<path d="M46.6028 27.1041H42.4917V31.2278H46.6028V27.1041Z" fill="url(#paint2_linear_171_1402)"/>
<path d="M46.6028 33.0309H42.4917V37.1546H46.6028V33.0309Z" fill="url(#paint3_linear_171_1402)"/>
<path d="M52.3184 27.1041H48.2073V31.2278H52.3184V27.1041Z" fill="url(#paint4_linear_171_1402)"/>
<path d="M52.3184 33.0309H48.2073V37.1546H52.3184V33.0309Z" fill="url(#paint5_linear_171_1402)"/>
<path d="M111.535 14.6128C111.173 14.6128 110.878 14.5278 110.651 14.3577C110.424 14.1764 110.243 13.9043 110.107 13.5415L106.672 3.88314C106.525 3.45237 106.553 3.08395 106.757 2.77787C106.973 2.47179 107.341 2.31876 107.863 2.31876C108.225 2.31876 108.503 2.40378 108.696 2.57382C108.9 2.74386 109.064 3.01026 109.189 3.37302L111.995 11.7221H111.263L114.222 3.39002C114.358 3.02726 114.523 2.76087 114.715 2.59082C114.919 2.40945 115.186 2.31876 115.514 2.31876C115.832 2.31876 116.087 2.40945 116.28 2.59082C116.472 2.76087 116.637 3.03293 116.773 3.40703L119.595 11.7221H118.966L121.823 3.37302C121.936 3.0216 122.095 2.76087 122.299 2.59082C122.503 2.40945 122.781 2.31876 123.132 2.31876C123.574 2.31876 123.897 2.47179 124.102 2.77787C124.306 3.08395 124.328 3.45237 124.17 3.88314L120.701 13.5585C120.576 13.91 120.406 14.1764 120.191 14.3577C119.975 14.5278 119.68 14.6128 119.306 14.6128C118.944 14.6128 118.655 14.5278 118.439 14.3577C118.224 14.1764 118.048 13.9043 117.912 13.5415L115.225 5.94065H115.633L112.913 13.5585C112.777 13.91 112.601 14.1764 112.386 14.3577C112.182 14.5278 111.898 14.6128 111.535 14.6128Z" fill="url(#paint6_linear_171_1402)"/>
<path d="M129.146 14.6468C128.16 14.6468 127.31 14.4711 126.596 14.1197C125.893 13.7569 125.349 13.2525 124.963 12.6063C124.589 11.9488 124.402 11.1779 124.402 10.2937C124.402 9.43218 124.584 8.67833 124.946 8.03217C125.309 7.37467 125.814 6.86455 126.46 6.50179C127.117 6.1277 127.86 5.94065 128.687 5.94065C129.288 5.94065 129.832 6.04268 130.32 6.24673C130.807 6.43944 131.227 6.72284 131.578 7.09694C131.929 7.45969 132.196 7.90747 132.377 8.44027C132.559 8.96173 132.649 9.54554 132.649 10.1917C132.649 10.4071 132.581 10.5715 132.445 10.6848C132.309 10.7868 132.111 10.8379 131.85 10.8379H126.511V9.51153H130.796L130.524 9.74959C130.524 9.28481 130.456 8.89938 130.32 8.59331C130.184 8.2759 129.985 8.03784 129.725 7.87913C129.475 7.72042 129.163 7.64107 128.789 7.64107C128.37 7.64107 128.013 7.73743 127.718 7.93014C127.423 8.12286 127.197 8.40059 127.038 8.76335C126.879 9.12611 126.8 9.56255 126.8 10.0727V10.2087C126.8 11.0703 126.998 11.7051 127.395 12.1132C127.803 12.5213 128.404 12.7253 129.197 12.7253C129.47 12.7253 129.781 12.6913 130.133 12.6233C130.484 12.5553 130.813 12.4476 131.119 12.3002C131.38 12.1755 131.612 12.1358 131.816 12.1812C132.02 12.2152 132.179 12.3059 132.292 12.4533C132.406 12.6006 132.468 12.7707 132.479 12.9634C132.502 13.1561 132.462 13.3488 132.36 13.5415C132.258 13.7229 132.088 13.8759 131.85 14.0006C131.465 14.216 131.028 14.3747 130.541 14.4768C130.065 14.5901 129.6 14.6468 129.146 14.6468Z" fill="url(#paint7_linear_171_1402)"/>
<path d="M136.965 14.6468C136.353 14.6468 135.804 14.5278 135.316 14.2897C134.829 14.0517 134.449 13.7286 134.177 13.3205C133.905 12.9124 133.769 12.4533 133.769 11.9431C133.769 11.331 133.927 10.8492 134.245 10.4978C134.562 10.135 135.078 9.87996 135.792 9.73259C136.506 9.57388 137.453 9.49453 138.632 9.49453H139.533V10.8209H138.649C138.071 10.8209 137.6 10.8549 137.238 10.9229C136.886 10.9796 136.631 11.0816 136.472 11.229C136.325 11.3763 136.251 11.5804 136.251 11.8411C136.251 12.1585 136.359 12.4193 136.574 12.6233C136.801 12.8274 137.124 12.9294 137.544 12.9294C137.872 12.9294 138.161 12.8557 138.411 12.7083C138.672 12.5496 138.876 12.3399 139.023 12.0792C139.17 11.8071 139.244 11.501 139.244 11.1609V9.20546C139.244 8.70667 139.131 8.35525 138.904 8.1512C138.677 7.93581 138.292 7.82812 137.748 7.82812C137.442 7.82812 137.107 7.86779 136.744 7.94715C136.393 8.01516 136.002 8.13419 135.571 8.30424C135.322 8.4176 135.101 8.44594 134.908 8.38926C134.715 8.32124 134.568 8.20788 134.466 8.04917C134.364 7.87913 134.313 7.69775 134.313 7.50504C134.313 7.30099 134.37 7.10827 134.483 6.9269C134.596 6.73418 134.783 6.59248 135.044 6.50179C135.577 6.2864 136.076 6.13903 136.54 6.05968C137.016 5.98033 137.453 5.94065 137.85 5.94065C138.723 5.94065 139.437 6.07102 139.992 6.33175C140.559 6.58114 140.984 6.97224 141.268 7.50504C141.551 8.0265 141.693 8.701 141.693 9.52854V13.3035C141.693 13.7229 141.591 14.046 141.387 14.2727C141.183 14.4994 140.888 14.6128 140.502 14.6128C140.117 14.6128 139.817 14.4994 139.601 14.2727C139.397 14.046 139.295 13.7229 139.295 13.3035V12.6743L139.414 12.7763C139.346 13.1618 139.199 13.4962 138.972 13.7796C138.757 14.0517 138.479 14.267 138.139 14.4257C137.799 14.5731 137.408 14.6468 136.965 14.6468Z" fill="url(#paint8_linear_171_1402)"/>
<path d="M146.618 14.6468C145.609 14.6468 144.855 14.3691 144.356 13.8136C143.857 13.2468 143.608 12.4079 143.608 11.297V3.62808C143.608 3.19731 143.716 2.87423 143.931 2.65884C144.158 2.43212 144.481 2.31876 144.9 2.31876C145.308 2.31876 145.62 2.43212 145.836 2.65884C146.062 2.87423 146.176 3.19731 146.176 3.62808V11.195C146.176 11.6597 146.272 12.0055 146.465 12.2322C146.669 12.4476 146.935 12.5553 147.264 12.5553C147.355 12.5553 147.44 12.5496 147.519 12.5383C147.598 12.5269 147.683 12.5213 147.774 12.5213C147.955 12.4986 148.08 12.5553 148.148 12.6913C148.227 12.816 148.267 13.0711 148.267 13.4565C148.267 13.7966 148.199 14.0573 148.063 14.2387C147.927 14.4087 147.717 14.5221 147.434 14.5788C147.321 14.5901 147.19 14.6015 147.043 14.6128C146.895 14.6355 146.754 14.6468 146.618 14.6468Z" fill="url(#paint9_linear_171_1402)"/>
<path d="M153.119 14.6468C152.337 14.6468 151.68 14.5164 151.147 14.2557C150.626 13.995 150.234 13.6152 149.974 13.1164C149.724 12.6176 149.6 11.9885 149.6 11.229V8.03217H148.885C148.568 8.03217 148.319 7.94715 148.137 7.77711C147.967 7.60706 147.882 7.37467 147.882 7.07993C147.882 6.76252 147.967 6.52446 148.137 6.36576C148.319 6.19571 148.568 6.11069 148.885 6.11069H149.6V4.81837C149.6 4.3876 149.713 4.06452 149.94 3.84914C150.166 3.62241 150.484 3.50905 150.892 3.50905C151.311 3.50905 151.629 3.62241 151.844 3.84914C152.06 4.06452 152.167 4.3876 152.167 4.81837V6.11069H153.783C154.1 6.11069 154.344 6.19571 154.514 6.36576C154.684 6.52446 154.769 6.76252 154.769 7.07993C154.769 7.37467 154.684 7.60706 154.514 7.77711C154.344 7.94715 154.1 8.03217 153.783 8.03217H152.167V11.1269C152.167 11.6031 152.275 11.9601 152.49 12.1982C152.717 12.4363 153.074 12.5553 153.562 12.5553C153.732 12.5553 153.89 12.5383 154.038 12.5043C154.185 12.4703 154.321 12.4476 154.446 12.4363C154.605 12.4249 154.735 12.4759 154.837 12.5893C154.939 12.6913 154.99 12.9237 154.99 13.2865C154.99 13.5585 154.945 13.7966 154.854 14.0006C154.763 14.2047 154.605 14.3521 154.378 14.4428C154.23 14.4994 154.026 14.5448 153.766 14.5788C153.516 14.6241 153.301 14.6468 153.119 14.6468Z" fill="url(#paint10_linear_171_1402)"/>
<path d="M157.438 14.6128C157.018 14.6128 156.695 14.4994 156.468 14.2727C156.253 14.046 156.145 13.7229 156.145 13.3035V3.62808C156.145 3.19731 156.253 2.87423 156.468 2.65884C156.695 2.43212 157.018 2.31876 157.438 2.31876C157.846 2.31876 158.157 2.43212 158.373 2.65884C158.6 2.87423 158.713 3.19731 158.713 3.62808V7.67508H158.475C158.736 7.11961 159.121 6.6945 159.631 6.39977C160.153 6.09369 160.742 5.94065 161.4 5.94065C162.068 5.94065 162.618 6.07102 163.049 6.33175C163.48 6.58114 163.803 6.96657 164.018 7.48803C164.234 7.99816 164.341 8.64999 164.341 9.44352V13.3035C164.341 13.7229 164.228 14.046 164.001 14.2727C163.786 14.4994 163.468 14.6128 163.049 14.6128C162.641 14.6128 162.323 14.4994 162.097 14.2727C161.881 14.046 161.774 13.7229 161.774 13.3035V9.56255C161.774 8.9844 161.666 8.57064 161.451 8.32124C161.247 8.06051 160.929 7.93014 160.498 7.93014C159.954 7.93014 159.518 8.10019 159.189 8.44027C158.872 8.78035 158.713 9.2338 158.713 9.80061V13.3035C158.713 14.1764 158.288 14.6128 157.438 14.6128Z" fill="url(#paint11_linear_171_1402)"/>
<path d="M108.424 34.7087C107.993 34.7087 107.664 34.5896 107.437 34.3516C107.211 34.1135 107.097 33.7791 107.097 33.3483V23.911C107.097 23.4689 107.211 23.1345 107.437 22.9078C107.675 22.681 108.01 22.5677 108.441 22.5677H112.573C113.91 22.5677 114.942 22.9078 115.667 23.5879C116.393 24.2568 116.756 25.192 116.756 26.3936C116.756 27.5952 116.393 28.5361 115.667 29.2163C114.942 29.8965 113.91 30.2366 112.573 30.2366H109.733V33.3483C109.733 33.7791 109.62 34.1135 109.393 34.3516C109.178 34.5896 108.854 34.7087 108.424 34.7087ZM109.733 28.1961H112.131C112.811 28.1961 113.327 28.043 113.678 27.7369C114.041 27.4309 114.222 26.9831 114.222 26.3936C114.222 25.8041 114.041 25.362 113.678 25.0673C113.327 24.7725 112.811 24.6252 112.131 24.6252H109.733V28.1961Z" fill="url(#paint12_linear_171_1402)"/>
<path d="M119.328 34.7087C118.898 34.7087 118.569 34.5953 118.342 34.3686C118.115 34.1419 118.002 33.8188 118.002 33.3993V27.3629C118.002 26.9434 118.11 26.626 118.325 26.4106C118.552 26.1839 118.864 26.0705 119.26 26.0705C119.668 26.0705 119.98 26.1839 120.196 26.4106C120.411 26.626 120.519 26.9434 120.519 27.3629V28.2471H120.349C120.485 27.5669 120.785 27.0398 121.25 26.6657C121.715 26.2916 122.315 26.0819 123.052 26.0365C123.336 26.0139 123.551 26.0875 123.698 26.2576C123.857 26.4163 123.942 26.6827 123.954 27.0568C123.976 27.4082 123.903 27.6859 123.732 27.89C123.574 28.094 123.302 28.2187 122.916 28.2641L122.525 28.2981C121.879 28.3548 121.397 28.5418 121.08 28.8592C120.774 29.1766 120.621 29.6357 120.621 30.2366V33.3993C120.621 33.8188 120.507 34.1419 120.281 34.3686C120.065 34.5953 119.748 34.7087 119.328 34.7087Z" fill="url(#paint13_linear_171_1402)"/>
<path d="M128.873 34.7427C127.978 34.7427 127.195 34.567 126.527 34.2155C125.869 33.8641 125.359 33.3597 124.996 32.7022C124.633 32.0447 124.452 31.2682 124.452 30.3726C124.452 29.7038 124.554 29.103 124.758 28.5702C124.962 28.0374 125.257 27.5839 125.642 27.2098C126.039 26.8244 126.51 26.5353 127.054 26.3426C127.598 26.1386 128.204 26.0365 128.873 26.0365C129.769 26.0365 130.545 26.2122 131.203 26.5637C131.872 26.9151 132.387 27.4139 132.75 28.06C133.124 28.7062 133.311 29.477 133.311 30.3726C133.311 31.0528 133.204 31.6593 132.988 32.192C132.784 32.7248 132.489 33.184 132.104 33.5694C131.719 33.9548 131.248 34.2496 130.693 34.4536C130.149 34.6463 129.542 34.7427 128.873 34.7427ZM128.873 32.8212C129.247 32.8212 129.57 32.7305 129.842 32.5491C130.115 32.3678 130.33 32.1014 130.489 31.7499C130.647 31.3872 130.727 30.9281 130.727 30.3726C130.727 29.5451 130.557 28.9386 130.217 28.5532C129.876 28.1564 129.429 27.958 128.873 27.958C128.51 27.958 128.187 28.043 127.904 28.2131C127.632 28.3831 127.417 28.6495 127.258 29.0123C127.11 29.3637 127.037 29.8171 127.037 30.3726C127.037 31.2001 127.207 31.818 127.547 32.2261C127.887 32.6228 128.329 32.8212 128.873 32.8212Z" fill="url(#paint14_linear_171_1402)"/>
<path d="M136.166 37.7694C135.746 37.7694 135.423 37.6561 135.197 37.4293C134.981 37.214 134.873 36.8909 134.873 36.4601V27.3629C134.873 26.9434 134.981 26.626 135.197 26.4106C135.423 26.1839 135.735 26.0705 136.132 26.0705C136.551 26.0705 136.869 26.1839 137.084 26.4106C137.299 26.626 137.407 26.9434 137.407 27.3629V28.5191L137.22 27.856C137.39 27.3118 137.73 26.8754 138.24 26.5467C138.762 26.2066 139.357 26.0365 140.026 26.0365C140.751 26.0365 141.386 26.2122 141.93 26.5637C142.486 26.9151 142.916 27.4139 143.222 28.06C143.529 28.7062 143.682 29.477 143.682 30.3726C143.682 31.2682 143.529 32.0447 143.222 32.7022C142.916 33.3597 142.491 33.8641 141.947 34.2155C141.403 34.567 140.763 34.7427 140.026 34.7427C139.368 34.7427 138.784 34.584 138.274 34.2666C137.764 33.9378 137.418 33.5127 137.237 32.9912H137.441V36.4601C137.441 36.8909 137.328 37.214 137.101 37.4293C136.886 37.6561 136.574 37.7694 136.166 37.7694ZM139.261 32.8212C139.623 32.8212 139.941 32.7305 140.213 32.5491C140.496 32.3678 140.712 32.1014 140.859 31.7499C141.018 31.3872 141.097 30.9281 141.097 30.3726C141.097 29.5451 140.927 28.9386 140.587 28.5532C140.247 28.1564 139.805 27.958 139.261 27.958C138.898 27.958 138.575 28.043 138.291 28.2131C138.019 28.3831 137.804 28.6495 137.645 29.0123C137.486 29.3637 137.407 29.8171 137.407 30.3726C137.407 31.2001 137.577 31.818 137.917 32.2261C138.257 32.6228 138.705 32.8212 139.261 32.8212Z" fill="url(#paint15_linear_171_1402)"/>
<path d="M149.588 34.7427C148.602 34.7427 147.752 34.567 147.037 34.2155C146.335 33.8528 145.79 33.3483 145.405 32.7022C145.031 32.0447 144.844 31.2738 144.844 30.3896C144.844 29.5281 145.025 28.7742 145.388 28.128C145.751 27.4705 146.255 26.9604 146.901 26.5977C147.559 26.2236 148.301 26.0365 149.129 26.0365C149.73 26.0365 150.274 26.1386 150.761 26.3426C151.249 26.5353 151.668 26.8187 152.02 27.1928C152.371 27.5556 152.637 28.0033 152.819 28.5361C153 29.0576 153.091 29.6414 153.091 30.2876C153.091 30.503 153.023 30.6673 152.887 30.7807C152.751 30.8827 152.552 30.9337 152.292 30.9337H146.952V29.6074H151.237L150.965 29.8455C150.965 29.3807 150.897 28.9953 150.761 28.6892C150.625 28.3718 150.427 28.1337 150.166 27.975C149.917 27.8163 149.605 27.7369 149.231 27.7369C148.812 27.7369 148.454 27.8333 148.16 28.026C147.865 28.2187 147.638 28.4965 147.48 28.8592C147.321 29.222 147.241 29.6584 147.241 30.1685V30.3046C147.241 31.1661 147.44 31.801 147.837 32.2091C148.245 32.6172 148.846 32.8212 149.639 32.8212C149.911 32.8212 150.223 32.7872 150.574 32.7192C150.926 32.6512 151.254 32.5435 151.561 32.3961C151.821 32.2714 152.054 32.2317 152.258 32.2771C152.462 32.3111 152.62 32.4018 152.734 32.5491C152.847 32.6965 152.91 32.8665 152.921 33.0593C152.944 33.252 152.904 33.4447 152.802 33.6374C152.7 33.8188 152.53 33.9718 152.292 34.0965C151.906 34.3119 151.47 34.4706 150.982 34.5726C150.506 34.686 150.041 34.7427 149.588 34.7427Z" fill="url(#paint16_linear_171_1402)"/>
<path d="M155.911 34.7087C155.48 34.7087 155.151 34.5953 154.924 34.3686C154.698 34.1419 154.584 33.8188 154.584 33.3993V27.3629C154.584 26.9434 154.692 26.626 154.907 26.4106C155.134 26.1839 155.446 26.0705 155.843 26.0705C156.251 26.0705 156.563 26.1839 156.778 26.4106C156.993 26.626 157.101 26.9434 157.101 27.3629V28.2471H156.931C157.067 27.5669 157.367 27.0398 157.832 26.6657C158.297 26.2916 158.898 26.0819 159.635 26.0365C159.918 26.0139 160.133 26.0875 160.281 26.2576C160.439 26.4163 160.524 26.6827 160.536 27.0568C160.558 27.4082 160.485 27.6859 160.315 27.89C160.156 28.094 159.884 28.2187 159.499 28.2641L159.107 28.2981C158.461 28.3548 157.98 28.5418 157.662 28.8592C157.356 29.1766 157.203 29.6357 157.203 30.2366V33.3993C157.203 33.8188 157.09 34.1419 156.863 34.3686C156.648 34.5953 156.33 34.7087 155.911 34.7087Z" fill="url(#paint17_linear_171_1402)"/>
<path d="M166.188 34.7427C165.406 34.7427 164.748 34.6123 164.216 34.3516C163.694 34.0909 163.303 33.7111 163.042 33.2123C162.793 32.7135 162.668 32.0844 162.668 31.3248V28.128H161.954C161.637 28.128 161.387 28.043 161.206 27.873C161.036 27.7029 160.951 27.4705 160.951 27.1758C160.951 26.8584 161.036 26.6203 161.206 26.4616C161.387 26.2916 161.637 26.2066 161.954 26.2066H162.668V24.9142C162.668 24.4835 162.782 24.1604 163.008 23.945C163.235 23.7183 163.552 23.6049 163.961 23.6049C164.38 23.6049 164.697 23.7183 164.913 23.945C165.128 24.1604 165.236 24.4835 165.236 24.9142V26.2066H166.851C167.169 26.2066 167.412 26.2916 167.582 26.4616C167.753 26.6203 167.838 26.8584 167.838 27.1758C167.838 27.4705 167.753 27.7029 167.582 27.873C167.412 28.043 167.169 28.128 166.851 28.128H165.236V31.2228C165.236 31.6989 165.344 32.056 165.559 32.2941C165.786 32.5321 166.143 32.6512 166.63 32.6512C166.8 32.6512 166.959 32.6342 167.106 32.6001C167.254 32.5661 167.39 32.5435 167.514 32.5321C167.673 32.5208 167.804 32.5718 167.906 32.6852C168.008 32.7872 168.059 33.0196 168.059 33.3823C168.059 33.6544 168.013 33.8925 167.923 34.0965C167.832 34.3006 167.673 34.4479 167.446 34.5386C167.299 34.5953 167.095 34.6407 166.834 34.6747C166.585 34.72 166.37 34.7427 166.188 34.7427Z" fill="url(#paint18_linear_171_1402)"/>
<path d="M170.506 34.6917C170.087 34.6917 169.764 34.5726 169.537 34.3346C169.322 34.0852 169.214 33.7394 169.214 33.2973V27.4819C169.214 27.0284 169.322 26.6827 169.537 26.4446C169.764 26.1952 170.087 26.0705 170.506 26.0705C170.914 26.0705 171.226 26.1952 171.441 26.4446C171.668 26.6827 171.782 27.0284 171.782 27.4819V33.2973C171.782 33.7394 171.674 34.0852 171.459 34.3346C171.243 34.5726 170.926 34.6917 170.506 34.6917ZM170.506 24.6762C170.03 24.6762 169.662 24.5685 169.401 24.3531C169.152 24.1264 169.027 23.809 169.027 23.4009C169.027 22.9814 169.152 22.664 169.401 22.4486C169.662 22.2219 170.03 22.1086 170.506 22.1086C170.982 22.1086 171.345 22.2219 171.595 22.4486C171.844 22.664 171.969 22.9814 171.969 23.4009C171.969 23.809 171.844 24.1264 171.595 24.3531C171.345 24.5685 170.982 24.6762 170.506 24.6762Z" fill="url(#paint19_linear_171_1402)"/>
<path d="M178.1 34.7427C177.114 34.7427 176.264 34.567 175.549 34.2155C174.847 33.8528 174.302 33.3483 173.917 32.7022C173.543 32.0447 173.356 31.2738 173.356 30.3896C173.356 29.5281 173.537 28.7742 173.9 28.128C174.263 27.4705 174.767 26.9604 175.413 26.5977C176.071 26.2236 176.813 26.0365 177.641 26.0365C178.242 26.0365 178.786 26.1386 179.273 26.3426C179.761 26.5353 180.18 26.8187 180.532 27.1928C180.883 27.5556 181.149 28.0033 181.331 28.5361C181.512 29.0576 181.603 29.6414 181.603 30.2876C181.603 30.503 181.535 30.6673 181.399 30.7807C181.263 30.8827 181.064 30.9337 180.804 30.9337H175.464V29.6074H179.749L179.477 29.8455C179.477 29.3807 179.409 28.9953 179.273 28.6892C179.137 28.3718 178.939 28.1337 178.678 27.975C178.429 27.8163 178.117 27.7369 177.743 27.7369C177.323 27.7369 176.966 27.8333 176.672 28.026C176.377 28.2187 176.15 28.4965 175.991 28.8592C175.833 29.222 175.753 29.6584 175.753 30.1685V30.3046C175.753 31.1661 175.952 31.801 176.349 32.2091C176.757 32.6172 177.357 32.8212 178.151 32.8212C178.423 32.8212 178.735 32.7872 179.086 32.7192C179.438 32.6512 179.766 32.5435 180.072 32.3961C180.333 32.2714 180.566 32.2317 180.77 32.2771C180.974 32.3111 181.132 32.4018 181.246 32.5491C181.359 32.6965 181.421 32.8665 181.433 33.0593C181.455 33.252 181.416 33.4447 181.314 33.6374C181.212 33.8188 181.042 33.9718 180.804 34.0965C180.418 34.3119 179.982 34.4706 179.494 34.5726C179.018 34.686 178.553 34.7427 178.1 34.7427Z" fill="url(#paint20_linear_171_1402)"/>
<path d="M186.293 34.7427C185.794 34.7427 185.278 34.6973 184.746 34.6066C184.224 34.516 183.748 34.3629 183.317 34.1475C183.091 34.0342 182.926 33.8925 182.824 33.7224C182.734 33.541 182.694 33.3597 182.705 33.1783C182.717 32.9969 182.773 32.8325 182.875 32.6852C182.989 32.5378 183.13 32.4414 183.3 32.3961C183.482 32.3394 183.68 32.3564 183.895 32.4471C184.36 32.6398 184.785 32.7759 185.171 32.8552C185.556 32.9346 185.936 32.9742 186.31 32.9742C186.798 32.9742 187.149 32.9006 187.364 32.7532C187.591 32.5945 187.704 32.3904 187.704 32.141C187.704 31.9143 187.631 31.7443 187.483 31.6309C187.336 31.5175 187.121 31.4382 186.837 31.3929L185.052 31.0698C184.349 30.9451 183.805 30.69 183.419 30.3046C183.045 29.9078 182.858 29.4034 182.858 28.7912C182.858 28.2244 183.017 27.7369 183.334 27.3288C183.652 26.9094 184.088 26.592 184.644 26.3766C185.21 26.1499 185.851 26.0365 186.565 26.0365C187.075 26.0365 187.546 26.0819 187.976 26.1726C188.407 26.2632 188.821 26.4106 189.218 26.6147C189.422 26.7167 189.564 26.8527 189.643 27.0228C189.734 27.1928 189.762 27.3685 189.728 27.5499C189.705 27.7313 189.637 27.8957 189.524 28.043C189.411 28.1904 189.263 28.2867 189.082 28.3321C188.912 28.3774 188.713 28.3548 188.487 28.2641C188.124 28.094 187.789 27.975 187.483 27.907C187.177 27.8276 186.883 27.788 186.599 27.788C186.089 27.788 185.721 27.873 185.494 28.043C185.267 28.2017 185.154 28.4058 185.154 28.6552C185.154 28.8479 185.216 29.0123 185.341 29.1483C185.477 29.273 185.681 29.358 185.953 29.4034L187.738 29.7264C188.475 29.8511 189.036 30.1005 189.422 30.4746C189.807 30.8374 190 31.3362 190 31.971C190 32.8325 189.66 33.5127 188.98 34.0115C188.311 34.499 187.415 34.7427 186.293 34.7427Z" fill="url(#paint21_linear_171_1402)"/>
<defs>
<linearGradient id="paint0_linear_171_1402" x1="13.8373" y1="17.9612" x2="94.382" y2="17.9612" gradientUnits="userSpaceOnUse">
<stop stop-color="#12C2E9"/>
<stop offset="0.5" stop-color="#C471ED"/>
<stop offset="1" stop-color="#F64F59"/>
</linearGradient>
<linearGradient id="paint1_linear_171_1402" x1="-0.512326" y1="22.2418" x2="82.5772" y2="22.2418" gradientUnits="userSpaceOnUse">
<stop stop-color="#12C2E9"/>
<stop offset="0.5" stop-color="#C471ED"/>
<stop offset="1" stop-color="#F64F59"/>
</linearGradient>
<linearGradient id="paint2_linear_171_1402" x1="38.8337" y1="29.1666" x2="50.4391" y2="29.1666" gradientUnits="userSpaceOnUse">
<stop stop-color="#12C2E9"/>
<stop offset="0.5" stop-color="#C471ED"/>
<stop offset="1" stop-color="#F64F59"/>
</linearGradient>
<linearGradient id="paint3_linear_171_1402" x1="38.8337" y1="35.0934" x2="50.4391" y2="35.0934" gradientUnits="userSpaceOnUse">
<stop stop-color="#12C2E9"/>
<stop offset="0.5" stop-color="#C471ED"/>
<stop offset="1" stop-color="#F64F59"/>
</linearGradient>
<linearGradient id="paint4_linear_171_1402" x1="44.5493" y1="29.1666" x2="56.1547" y2="29.1666" gradientUnits="userSpaceOnUse">
<stop stop-color="#12C2E9"/>
<stop offset="0.5" stop-color="#C471ED"/>
<stop offset="1" stop-color="#F64F59"/>
</linearGradient>
<linearGradient id="paint5_linear_171_1402" x1="44.5493" y1="35.0934" x2="56.1547" y2="35.0934" gradientUnits="userSpaceOnUse">
<stop stop-color="#12C2E9"/>
<stop offset="0.5" stop-color="#C471ED"/>
<stop offset="1" stop-color="#F64F59"/>
</linearGradient>
<linearGradient id="paint6_linear_171_1402" x1="106.663" y1="20.0495" x2="190.138" y2="20.0495" gradientUnits="userSpaceOnUse">
<stop stop-color="#12C2E9"/>
<stop offset="0.5" stop-color="#C471ED"/>
<stop offset="1" stop-color="#F64F59"/>
</linearGradient>
<linearGradient id="paint7_linear_171_1402" x1="106.663" y1="20.0495" x2="190.138" y2="20.0495" gradientUnits="userSpaceOnUse">
<stop stop-color="#12C2E9"/>
<stop offset="0.5" stop-color="#C471ED"/>
<stop offset="1" stop-color="#F64F59"/>
</linearGradient>
<linearGradient id="paint8_linear_171_1402" x1="106.663" y1="20.0495" x2="190.138" y2="20.0495" gradientUnits="userSpaceOnUse">
<stop stop-color="#12C2E9"/>
<stop offset="0.5" stop-color="#C471ED"/>
<stop offset="1" stop-color="#F64F59"/>
</linearGradient>
<linearGradient id="paint9_linear_171_1402" x1="106.663" y1="20.0495" x2="190.138" y2="20.0495" gradientUnits="userSpaceOnUse">
<stop stop-color="#12C2E9"/>
<stop offset="0.5" stop-color="#C471ED"/>
<stop offset="1" stop-color="#F64F59"/>
</linearGradient>
<linearGradient id="paint10_linear_171_1402" x1="106.663" y1="20.0495" x2="190.138" y2="20.0495" gradientUnits="userSpaceOnUse">
<stop stop-color="#12C2E9"/>
<stop offset="0.5" stop-color="#C471ED"/>
<stop offset="1" stop-color="#F64F59"/>
</linearGradient>
<linearGradient id="paint11_linear_171_1402" x1="106.663" y1="20.0495" x2="190.138" y2="20.0495" gradientUnits="userSpaceOnUse">
<stop stop-color="#12C2E9"/>
<stop offset="0.5" stop-color="#C471ED"/>
<stop offset="1" stop-color="#F64F59"/>
</linearGradient>
<linearGradient id="paint12_linear_171_1402" x1="106.663" y1="20.0495" x2="190.138" y2="20.0495" gradientUnits="userSpaceOnUse">
<stop stop-color="#12C2E9"/>
<stop offset="0.5" stop-color="#C471ED"/>
<stop offset="1" stop-color="#F64F59"/>
</linearGradient>
<linearGradient id="paint13_linear_171_1402" x1="106.663" y1="20.0495" x2="190.138" y2="20.0495" gradientUnits="userSpaceOnUse">
<stop stop-color="#12C2E9"/>
<stop offset="0.5" stop-color="#C471ED"/>
<stop offset="1" stop-color="#F64F59"/>
</linearGradient>
<linearGradient id="paint14_linear_171_1402" x1="106.663" y1="20.0495" x2="190.138" y2="20.0495" gradientUnits="userSpaceOnUse">
<stop stop-color="#12C2E9"/>
<stop offset="0.5" stop-color="#C471ED"/>
<stop offset="1" stop-color="#F64F59"/>
</linearGradient>
<linearGradient id="paint15_linear_171_1402" x1="106.663" y1="20.0495" x2="190.138" y2="20.0495" gradientUnits="userSpaceOnUse">
<stop stop-color="#12C2E9"/>
<stop offset="0.5" stop-color="#C471ED"/>
<stop offset="1" stop-color="#F64F59"/>
</linearGradient>
<linearGradient id="paint16_linear_171_1402" x1="106.663" y1="20.0495" x2="190.138" y2="20.0495" gradientUnits="userSpaceOnUse">
<stop stop-color="#12C2E9"/>
<stop offset="0.5" stop-color="#C471ED"/>
<stop offset="1" stop-color="#F64F59"/>
</linearGradient>
<linearGradient id="paint17_linear_171_1402" x1="106.663" y1="20.0495" x2="190.138" y2="20.0495" gradientUnits="userSpaceOnUse">
<stop stop-color="#12C2E9"/>
<stop offset="0.5" stop-color="#C471ED"/>
<stop offset="1" stop-color="#F64F59"/>
</linearGradient>
<linearGradient id="paint18_linear_171_1402" x1="106.663" y1="20.0495" x2="190.138" y2="20.0495" gradientUnits="userSpaceOnUse">
<stop stop-color="#12C2E9"/>
<stop offset="0.5" stop-color="#C471ED"/>
<stop offset="1" stop-color="#F64F59"/>
</linearGradient>
<linearGradient id="paint19_linear_171_1402" x1="106.663" y1="20.0495" x2="190.138" y2="20.0495" gradientUnits="userSpaceOnUse">
<stop stop-color="#12C2E9"/>
<stop offset="0.5" stop-color="#C471ED"/>
<stop offset="1" stop-color="#F64F59"/>
</linearGradient>
<linearGradient id="paint20_linear_171_1402" x1="106.663" y1="20.0495" x2="190.138" y2="20.0495" gradientUnits="userSpaceOnUse">
<stop stop-color="#12C2E9"/>
<stop offset="0.5" stop-color="#C471ED"/>
<stop offset="1" stop-color="#F64F59"/>
</linearGradient>
<linearGradient id="paint21_linear_171_1402" x1="106.663" y1="20.0495" x2="190.138" y2="20.0495" gradientUnits="userSpaceOnUse">
<stop stop-color="#12C2E9"/>
<stop offset="0.5" stop-color="#C471ED"/>
<stop offset="1" stop-color="#F64F59"/>
</linearGradient>
</defs>
</svg>
