<svg width="42" height="33" viewBox="0 0 42 33" fill="none" xmlns="http://www.w3.org/2000/svg">
<g clip-path="url(#clip0_406_25)">
<path d="M38.578 0H2.893C1.29524 0 0 1.29524 0 2.893V2.894C0 4.49176 1.29524 5.787 2.893 5.787H38.578C40.1758 5.787 41.471 4.49176 41.471 2.894V2.893C41.471 1.29524 40.1758 0 38.578 0Z" fill="#003C3C"/>
<path d="M15.3642 12.5381H38.5782C39.3456 12.5381 40.0816 12.8429 40.6242 13.3856C41.1669 13.9282 41.4717 14.6642 41.4717 15.4316C41.4717 16.199 41.1669 16.935 40.6242 17.4776C40.0816 18.0202 39.3456 18.3251 38.5782 18.3251H15.3642C14.5968 18.3251 13.8608 18.0202 13.3182 17.4776C12.7756 16.935 12.4707 16.199 12.4707 15.4316C12.4707 14.6642 12.7756 13.9282 13.3182 13.3856C13.8608 12.8429 14.5968 12.5381 15.3642 12.5381V12.5381Z" fill="#003C3C"/>
<path d="M38.576 26.5H2.895C1.29614 26.5 0 27.7961 0 29.395C0 30.9939 1.29614 32.29 2.895 32.29H38.576C40.1749 32.29 41.471 30.9939 41.471 29.395C41.471 27.7961 40.1749 26.5 38.576 26.5Z" fill="#1EC569"/>
</g>
<defs>
<clipPath id="clip0_406_25">
<rect width="41.471" height="32.29" fill="white"/>
</clipPath>
</defs>
</svg>
