<svg width="27" height="23" viewBox="0 0 27 23" fill="none" xmlns="http://www.w3.org/2000/svg">
<path d="M27 3.10433C26.0067 3.5475 24.9369 3.84295 23.8181 3.97973C24.9642 3.29035 25.8375 2.20157 26.2523 0.910346C25.1825 1.53954 23.9982 2.0046 22.7374 2.25081C21.7277 1.17297 20.2868 0.5 18.6931 0.5C15.6313 0.5 13.1534 2.98396 13.1534 6.05334C13.1534 6.49105 13.2025 6.91234 13.2953 7.31721C8.69436 7.08742 4.61189 4.87702 1.8775 1.51766C1.40267 2.33835 1.12978 3.29035 1.12978 4.30801C1.12978 6.2339 2.10673 7.93546 3.59127 8.93124C2.68526 8.90388 1.82838 8.6522 1.08065 8.23638C1.08065 8.25827 1.08065 8.28015 1.08065 8.30751C1.08065 10.9994 2.9909 13.2426 5.52335 13.7514C5.05943 13.8773 4.56822 13.9484 4.0661 13.9484C3.71134 13.9484 3.36204 13.9156 3.02365 13.8499C3.72771 16.0548 5.77441 17.6634 8.1977 17.7072C6.30382 19.1953 3.91328 20.0817 1.3208 20.0817C0.873257 20.0817 0.43117 20.0543 0 20.0051C2.45058 21.5808 5.36507 22.5 8.49242 22.5C18.6822 22.5 24.2547 14.0414 24.2547 6.69896C24.2547 6.45822 24.2492 6.21748 24.2383 5.98222C25.319 5.19435 26.2577 4.215 27 3.10433Z" fill="#2E2E2E"/>
</svg>
