<svg width="38" height="42" viewBox="0 0 38 42" fill="none" xmlns="http://www.w3.org/2000/svg">
<path d="M36.7885 14.3795V41.0623H34.1782V15.8847V15.6847L34.0182 15.5647L19.24 4.48103L19 4.30103L18.76 4.48103L3.98181 15.5647L3.82181 15.6847V15.8847V41.0623H1.21146V14.3795L19 1.03809L36.7885 14.3795ZM10.6425 38.052V38.452H11.0425H26.9575H27.3575V38.052V31.7996V31.3996H26.9575H11.0425H10.6425V31.7996V38.052ZM10.6425 28.3893V28.7893H11.0425H26.9575H27.3575V28.3893V22.137V21.737H26.9575H11.0425H10.6425V22.137V28.3893ZM8.03217 41.0623V19.1266H29.9678V41.0623H8.03217Z" fill="white" stroke="#4A4A4A" stroke-width="0.8"/>
</svg>
