<svg width="42" height="32" viewBox="0 0 42 32" fill="none" xmlns="http://www.w3.org/2000/svg">
<path d="M3.54825 9.57711V9.97711H3.94825H9.97321H10.3732V9.57711V3.49531V3.09531H9.97321H3.94825H3.54825V3.49531V9.57711ZM12.9836 9.57711V9.97711H13.3836H38.0518H38.4518V9.57711V3.49531V3.09531H38.0518H13.3836H12.9836V3.49531V9.57711ZM12.9836 19.0124V19.4124H13.3836H38.0518H38.4518V19.0124V12.9875V12.5875H38.0518H13.3836H12.9836V12.9875V19.0124ZM12.9836 28.5046V28.9046H13.3836H38.0518H38.4518V28.5046V22.4228V22.0228H38.0518H13.3836H12.9836V22.4228V28.5046ZM3.54825 28.5046V28.9046H3.94825H9.97321H10.3732V28.5046V22.4228V22.0228H9.97321H3.94825H3.54825V22.4228V28.5046ZM3.54825 19.0124V19.4124H3.94825H9.97321H10.3732V19.0124V12.9875V12.5875H9.97321H3.94825H3.54825V12.9875V19.0124ZM0.937903 31.5149V0.484961H41.0621V31.5149H0.937903Z" fill="white" stroke="#4A4A4A" stroke-width="0.8"/>
</svg>
