<svg width="48" height="48" viewBox="0 0 48 48" fill="none" xmlns="http://www.w3.org/2000/svg">
<path d="M25.5387 22.05V35.35H22.8137V22.05H25.5387ZM25.1055 16.4834C24.8132 16.7603 24.4538 16.9025 24 16.9025C23.5462 16.9025 23.1868 16.7603 22.8945 16.4834C22.6081 16.2121 22.4612 15.8696 22.4612 15.4225C22.4612 14.975 22.6091 14.6041 22.9094 14.288C23.2047 13.9772 23.5594 13.825 24 13.825C24.4405 13.825 24.7953 13.9772 25.0906 14.288C25.3909 14.6041 25.5387 14.975 25.5387 15.4225C25.5387 15.8696 25.3919 16.2121 25.1055 16.4834ZM24 47.1C20.8411 47.1 17.8598 46.4936 15.0522 45.2821C12.238 44.0677 9.78367 42.4117 7.68597 40.314C5.58826 38.2163 3.93226 35.762 2.71789 32.9478C1.50668 30.1408 0.9 27.14 0.9 23.9412C0.9 20.7823 1.50642 17.801 2.71789 14.9935C3.93212 12.1796 5.58775 9.73557 7.68466 7.65789C9.78249 5.57931 12.2372 3.93259 15.0522 2.71789C17.8592 1.50668 20.86 0.9 24.0587 0.9C27.2177 0.9 30.199 1.50642 33.0065 2.71789C35.8212 3.93245 38.2656 5.5788 40.3434 7.65659C42.4212 9.73438 44.0675 12.1788 45.2821 14.9935C46.4933 17.8004 47.1 20.8012 47.1 24C47.1 27.1589 46.4936 30.1402 45.2821 32.9478C44.0674 35.7628 42.4207 38.2175 40.3421 40.3153C38.2644 42.4122 35.8204 44.0679 33.0065 45.2821C30.1996 46.4933 27.1988 47.1 24 47.1ZM24.0587 44.375C29.6871 44.375 34.4893 42.3844 38.4423 38.4115C42.3954 34.4385 44.375 29.6073 44.375 23.9412C44.375 18.3135 42.3947 13.5115 38.4416 9.55841C34.4879 5.6047 29.6661 3.625 24 3.625C18.3723 3.625 13.5609 5.60524 9.5885 9.5577C5.61498 13.5112 3.625 18.3333 3.625 24C3.625 29.6283 5.61551 34.4399 9.58778 38.4122C13.5606 42.3851 18.3921 44.375 24.0587 44.375Z" fill="white" stroke="#4A4A4A" stroke-width="0.8"/>
</svg>
