<svg width="42" height="42" viewBox="0 0 42 42" fill="none" xmlns="http://www.w3.org/2000/svg">
<path d="M20.9978 36.8015V41.0623H18.3875V29.0735H20.9978V33.3911V33.7911H21.3978H41.0621V36.4015H21.3978H20.9978V36.8015ZM11.5668 19.295V14.9205H14.1771V26.9662H11.5668V22.7054V22.3054H11.1668H0.937842V19.695H11.1668H11.5668V19.295ZM30.4331 8.60925V12.9269H27.8228V0.938086H30.4331V5.1989V5.5989H30.8331H41.0621V8.20925H30.8331H30.4331V8.60925ZM0.937842 36.4015V33.7911H14.1771V36.4015H0.937842ZM18.3875 22.3054V19.695H41.0621V22.3054H18.3875ZM0.937842 8.20925V5.5989H23.6124V8.20925H0.937842Z" fill="white" stroke="#4A4A4A" stroke-width="0.8"/>
</svg>
