<svg width="46" height="46" viewBox="0 0 46 46" fill="none" xmlns="http://www.w3.org/2000/svg">
<path d="M3.27463 3.675V9.69783H0.664282V0.664648H9.69746V3.275H3.67463H3.27463V3.675ZM3.67463 42.7257H9.69746V45.336H0.664282V36.3028H3.27463V42.3256V42.7257H3.67463ZM42.7253 42.3256V36.3028H45.3356V45.336H36.3025V42.7257H42.3253H42.7253V42.3256ZM42.3253 3.275H36.3025V0.664648H45.3356V9.69783H42.7253V3.675V3.275H42.3253ZM36.3593 36.4165H39.1402V39.1974H36.3593V36.4165ZM35.5593 32.8356V35.6165H32.7784V32.8356H35.5593ZM28.3976 28.4548H25.6167V25.6739H28.3976V28.4548ZM32.7784 28.4548V25.6739H35.5593V28.4548H32.7784ZM29.1976 29.2548H31.9784V32.0356H29.1976V29.2548ZM28.3976 35.6165H25.6167V32.8356H28.3976V35.6165ZM31.9784 36.4165V39.1974H29.1976V36.4165H31.9784ZM36.3593 29.2548H39.1402V32.0356H36.3593V29.2548ZM17.8844 37.1554H18.2844V36.7554V28.1159V27.7159H17.8844H9.24487H8.84487V28.1159V36.7554V37.1554H9.24487H17.8844ZM17.8844 18.2848H18.2844V17.8848V9.24524V8.84524H17.8844H9.24487H8.84487V9.24524V17.8848V18.2848H9.24487H17.8844ZM36.6982 18.2848H37.0982V17.8848V9.24524V8.84524H36.6982H28.0586H27.6586V9.24524V17.8848V18.2848H28.0586H36.6982ZM39.1402 6.80328V20.3268H25.6167V6.80328H39.1402ZM20.3264 25.6739V39.1974H6.80291V25.6739H20.3264ZM20.3264 6.80328V20.3268H6.80291V6.80328H20.3264Z" fill="white" stroke="#4A4A4A" stroke-width="0.8"/>
</svg>
